<?xml version="1.0" encoding="utf-8"?>
<!-- Generator: Adobe Illustrator 24.0.1, SVG Export Plug-In . SVG Version: 6.00 Build 0)  -->
<svg version="1.1" id="Layer_1" xmlns="http://www.w3.org/2000/svg" xmlns:xlink="http://www.w3.org/1999/xlink" x="0px" y="0px"
	 viewBox="0 0 144.5 143.6" style="enable-background:new 0 0 144.5 143.6;" xml:space="preserve">
<style type="text/css">
	.st0{fill:#D34124;}
	.st1{enable-background:new    ;}
	.st2{fill:#EDEDF7;}
</style>
<title>ai icon</title>
<path class="st0" d="M35.8,17.7c0.1-2,0.3-3.5,0.3-11.2c1.8-9.2,12.1-8,13.6,0.2v11.2l16,0.1V6.1c1.9-8.4,11.8-7.9,13.3,0l0.1,11.7
	L94.7,18l0.2-11.8c1.6-8.1,11-7.8,13.2,0v11.7c10.5,1.2,17,6.6,18.1,17.9l12.5,0.2c8.2,2.1,7.5,11.1-0.1,13.5h-12.2L126,65h12.6
	c7.7,1.6,7.6,11.6-0.1,13.1l-12.4,0.2v15.9H139c6.8,1.8,7.7,10.2,0,13.1h-12.9c-0.8,13.3-10,17.7-17.7,18.3v11.5
	c-1.8,9.3-12.1,8-13.6-0.2v-11.3l-16-0.1v11.9c-1.9,8.4-11.8,8-13.3,0l-0.1-11.7l-15.6-0.2l-0.2,11.8c-1.5,8.1-10.9,7.8-13.2,0
	v-11.7c-10.5-1.2-17-6.6-18.1-18l-12.5-0.2c-8.2-2.1-7.6-11.1,0.1-13.6h12.1l0.3-15.6H5.9C-1.9,76.7-1.8,66.7,6,65.1L18.3,65l0.1-16
	H5.5c-6.8-1.8-7.7-10.3,0-13.2h12.9c0.3-4.5,2-8.8,4.9-12.2C28,18,33.4,18.5,35.8,17.7z"/>
<g>
	<g class="st1">
		<path class="st2" d="M53.5,44.9h13.2l15.3,48.7H70.3l-6.4-24.7c-1.4-4.9-2.7-10.6-4-15.7h-0.3c-1.2,5.1-2.5,10.8-3.8,15.7
			l-6.4,24.7H38.2L53.5,44.9z M48.3,73.4h23.4V82H48.3V73.4z"/>
		<path class="st2" d="M87.2,44.9h11v48.7h-11V44.9z"/>
	</g>
</g>
</svg>
