<?xml version="1.0" encoding="utf-8"?>
<!-- Generator: Adobe Illustrator 24.0.1, SVG Export Plug-In . SVG Version: 6.00 Build 0)  -->
<svg version="1.1" id="Layer_1" xmlns="http://www.w3.org/2000/svg" xmlns:xlink="http://www.w3.org/1999/xlink" x="0px" y="0px"
	 viewBox="0 0 580 160" style="enable-background:new 0 0 580 160;" xml:space="preserve">
<style type="text/css">
	.st0{fill:#FFFFFF;}
	.st1{font-family:'Calibri-Bold';}
	.st2{font-size:23.0238px;}
	.st3{fill:#F15A24;}
	.st4{font-size:17.2678px;}
	.st5{font-size:8.2589px;}
</style>
<text transform="matrix(1 0 0 1 24.0029 136.2148)" class="st0 st1 st2">Input</text>
<text transform="matrix(1 0 0 1 482.9561 136.0264)" class="st0 st1 st2">Output</text>
<text transform="matrix(1 0 0 1 5.7695 55.1152)" class="st0 st1 st2">Car Brand</text>
<text transform="matrix(1 0 0 1 473.9189 58.9521)" class="st0 st1 st2">Car Brand</text>
<g>
	<circle class="st0" cx="124.2" cy="84.4" r="15.3"/>
	<polygon points="119.4,76.7 124.2,76.7 132.9,84.4 124.2,91.1 119.4,91.1 124.2,84.4 	"/>
</g>
<g>
	<circle class="st0" cx="437" cy="84.4" r="15.3"/>
	<polygon points="432.2,76.7 437,76.7 445.6,84.4 437,91.1 432.2,91.1 437,84.4 	"/>
</g>
<g>
	<circle class="st0" cx="186.6" cy="56.6" r="8.6"/>
	<circle class="st0" cx="186.6" cy="89.2" r="8.6"/>
	<circle class="st0" cx="186.6" cy="119.9" r="8.6"/>
</g>
<g>
	<circle class="st0" cx="373.7" cy="58.5" r="8.6"/>
	<circle class="st0" cx="373.7" cy="91.1" r="8.6"/>
	<circle class="st0" cx="373.7" cy="121.8" r="8.6"/>
</g>
<g>
	<circle class="st0" cx="335.3" cy="57.5" r="8.6"/>
	<circle class="st0" cx="335.3" cy="90.2" r="8.6"/>
	<circle class="st0" cx="335.3" cy="120.9" r="8.6"/>
</g>
<g>
	<circle class="st3" cx="296" cy="57.5" r="8.6"/>
	<circle class="st3" cx="296" cy="90.2" r="8.6"/>
	<circle class="st3" cx="296" cy="120.9" r="8.6"/>
</g>
<g>
	<circle class="st3" cx="257.6" cy="57.5" r="8.6"/>
	<circle class="st3" cx="257.6" cy="90.2" r="8.6"/>
	<circle class="st3" cx="257.6" cy="120.9" r="8.6"/>
</g>
<g>
	<circle class="st0" cx="223.1" cy="57.5" r="8.6"/>
	<circle class="st0" cx="223.1" cy="90.2" r="8.6"/>
	<circle class="st0" cx="223.1" cy="120.9" r="8.6"/>
</g>
<text transform="matrix(1 0 0 1 244.8745 14.0889)"><tspan x="0" y="0" class="st0 st1 st4">Hidden </tspan><tspan x="0" y="20.7" class="st0 st1 st4">Neurons</tspan></text>
<text transform="matrix(1 0 0 1 160.686 154.7197)" class="st0 st1 st4">Feature Extraction + Classification</text>
<text transform="matrix(1 0 0 1 465.6787 88.5313)"><tspan x="0" y="0" class="st0 st1 st5">Manufacturer: Range of Vehicals</tspan><tspan x="0" y="9.9" class="st0 st1 st5">Car Brands: Toyota, Mercedes</tspan><tspan x="0" y="19.8" class="st0 st1 st5">Variety of Cars: suvs</tspan></text>
</svg>
