<svg id="Layer_1" data-name="Layer 1" xmlns="http://www.w3.org/2000/svg" viewBox="0 0 2151.74 726.03"><defs><style>.cls-1{fill:#fff;stroke:#fff;stroke-miterlimit:133.33;stroke-width:33.33px;}.cls-2{font-size:517.27px;fill:#f7f2f2;font-family:Impact;}</style></defs><title>OpenAI_Logocom</title><g id="SVGRepo_iconCarrier" data-name="SVGRepo iconCarrier"><path class="cls-1" d="M-257.71,179.73A148.07,148.07,0,0,0-270.47,58.2,149.61,149.61,0,0,0-431.56-13.56a150.09,150.09,0,0,0-212-11.28,150.06,150.06,0,0,0-42.33,65,148.07,148.07,0,0,0-98.93,71.76A149.62,149.62,0,0,0-766.4,287.56a148,148,0,0,0,12.65,121.52,149.74,149.74,0,0,0,161.21,71.77A148.12,148.12,0,0,0-481,530.61,149.86,149.86,0,0,0-338.14,426.53a148.2,148.2,0,0,0,98.93-71.77,149.86,149.86,0,0,0-18.5-175ZM-481,491.73A110.69,110.69,0,0,1-552.15,466l3.51-2,118.25-68.26a19.69,19.69,0,0,0,9.72-16.86V212.16l50,28.92a1.75,1.75,0,0,1,.94,1.28V380.51A111.45,111.45,0,0,1-481,491.73ZM-720,389.64a110.66,110.66,0,0,1-13.23-74.57l3.52,2.1,118.36,68.26a19.09,19.09,0,0,0,19.32,0l144.58-83.36v57.72a2,2,0,0,1-.82,1.52l-119.76,69.08a111.34,111.34,0,0,1-152-40.75Zm-31.14-257.56a111,111,0,0,1,58.54-48.82V223.75a19,19,0,0,0,9.6,16.74l143.88,83-50,28.91a1.81,1.81,0,0,1-1.75,0l-119.54-69a111.47,111.47,0,0,1-40.74-152Zm410.7,95.42-144.35-83.83,49.87-28.8a1.83,1.83,0,0,1,1.76,0l119.53,69.07a111.23,111.23,0,0,1,40.75,151.92,111.25,111.25,0,0,1-57.49,48.63V244a19.56,19.56,0,0,0-10.07-16.51Zm49.76-74.81-3.52-2.11L-412.36,81.74a19.21,19.21,0,0,0-19.44,0l-144.47,83.35V107.38a1.65,1.65,0,0,1,.71-1.53L-456,36.9A111.33,111.33,0,0,1-304,77.79a111.28,111.28,0,0,1,13.26,74.42ZM-603.55,255l-50-28.8a2,2,0,0,1-.94-1.4V87A111.34,111.34,0,0,1-543-24.19a111.42,111.42,0,0,1,71,25.73l-3.52,2L-593.71,71.78a19.67,19.67,0,0,0-9.72,16.86Zm27.16-58.53L-512,159.35l64.51,37.12v74.22l-64.27,37.12-64.51-37.12Z" transform="translate(821.74 79.98)"/></g><text class="cls-2" transform="translate(653.98 555.04)">OpenAI</text></svg>