<?xml version="1.0" encoding="utf-8"?>
<!-- Generator: Adobe Illustrator 24.0.1, SVG Export Plug-In . SVG Version: 6.00 Build 0)  -->
<svg version="1.1" id="Layer_1" xmlns="http://www.w3.org/2000/svg" xmlns:xlink="http://www.w3.org/1999/xlink" x="0px" y="0px"
	 viewBox="0 0 640 340" style="enable-background:new 0 0 640 340;" xml:space="preserve">
<style type="text/css">
	.st0{fill:#FFFFFF;}
	.st1{fill:#EBF3FA;}
	.st2{fill:#2E3552;}
	.st3{fill:#ABC8F7;}
	.st4{fill:#D5E5FB;}
	.st5{fill:#7CA8F4;}
	.st6{fill:#FFB27D;}
	.st7{fill:#2B478B;}
	.st8{fill:#233862;}
	.st9{fill:#FFA25C;}
	.st10{fill:#EF8C48;}
	.st11{fill:#ED975D;}
	.st12{fill:#E8945B;}
	.st13{fill:#466AA5;}
	.st14{fill:#4C88F2;}
	.st15{fill:#ED7D2B;}
</style>
<g>
	<path class="st0" d="M535.2,333.2C535.2,333.2,535.2,333.2,535.2,333.2l4.8,0c0,0-0.1,0-0.1,0H535.2z"/>
	<path class="st0" d="M73.3,333.2C73.3,333.2,73.3,333.2,73.3,333.2"/>
	<path class="st0" d="M37.2,333.2C37.2,333.2,37.2,333.2,37.2,333.2"/>
	<path class="st0" d="M506.6,333.2C506.6,333.2,506.6,333.2,506.6,333.2l-109,0H247.3"/>
	<path class="st0" d="M96.8,333.2C96.8,333.2,96.8,333.2,96.8,333.2"/>
	<path class="st0" d="M519.3,333.2C519.3,333.2,519.3,333.2,519.3,333.2l3.1,0c0,0,0,0,0,0H519.3z"/>
	<path class="st1" d="M475.5,145.3c0,0.1,0,0.2,0,0.2c0,0,0,0,0,0L475.5,145.3z"/>
	<path class="st1" d="M519.3,333.2h3.1c-0.1-0.1-0.1-0.2-0.1-0.4c-0.2,0-0.4-0.1-0.7-0.1C520.3,332.5,519.6,333,519.3,333.2z"/>
	<path class="st1" d="M537.5,332.7c-1.4-0.2-2.1,0.3-2.3,0.5h4.8C539.1,333,538.4,332.8,537.5,332.7z"/>
	<path class="st1" d="M536.9,322.5L536.9,322.5C536.9,322.5,537,322.5,536.9,322.5c-0.6-4.5-1.5-10.5-2.2-17.1
		c-0.1-1.2-0.3-2.5-0.4-3.7c-0.2,0.9-0.4,1.8-0.6,2.7c-1.9,7.6-4.4,14.3-6.2,18.8c0,0,0.4,0.4,0.7,0.9c0.2,0.5,0.4,1.1,0.3,1.9
		c-0.1,0.6,0,1.4,0.2,2.2c0.6-0.3,1.2-0.8,1.8-1.3C531.7,325.8,536.9,322.5,536.9,322.5z"/>
	<path class="st1" d="M29.9,206.8c0,0-3,1.2-3.1-1.2c0-1.1,0.4-1.7,0.9-2.3l-0.1,0l-1.4-0.2c-0.1,0-0.2,0-0.3,0
		c-0.4,0.1-0.7,0.4-0.8,0.8l-0.4,2.9l11.3,1.6l0.4-3c0.1-0.5-0.3-1-0.8-1.1l-1.6-0.2C33.4,205,32.1,205.8,29.9,206.8z"/>
	<path class="st1" d="M228.1,268.9L228.1,268.9c-0.1-0.3-0.3-0.6-0.5-1C227.7,268.2,227.9,268.6,228.1,268.9z"/>
	<path class="st1" d="M50.1,196.8c0-1,0.1-2.5,0.3-4.4c0.4-6.2,1.2-16.7,0.6-29c-2.3,2.9-4,5-4.2,5.6c-1,2.2-8.9,26.7-8.9,26.7
		s-1.1,0.1-2.7,0c-0.2,0.4-0.4,0.8-0.4,1.1c0,0.2,0,0.4,0,0.5c0.4,0.5,0.8,1,0.8,1.4c0.3,2.2,1.1,3.2,0.7,3.4
		c-0.4,0.3-0.9-0.1-1.4-0.7c0,0.5,0,1,0,1.5l1.1,0.2c0.7,0.1,1.2,0.4,1.6,1c0.4,0.5,0.6,1.2,0.5,1.9l-0.4,3l6.3,0.9
		c0.2,0,0.5,0.1,0.7,0.1c0,0,0,0,0,0l0,0h0h0l3.4,0.5c0.7,0.1,1.4,0.3,2,0.6c0.3-4.2,0.8-9.1,1.2-12.5
		C50.6,197.8,50.1,197.3,50.1,196.8z"/>
	<path class="st2" d="M37.2,333.2C37.2,333.2,37.2,333.2,37.2,333.2l-10.3,0.1c0,0-0.1,0-0.1-0.1"/>
	<path class="st2" d="M96.8,333.2C96.8,333.2,96.8,333.2,96.8,333.2l-23.5,0.1c0,0,0,0,0-0.1"/>
	<path class="st2" d="M543.6,333.2c-0.1,0-0.2,0-0.3,0h-3c-0.1,0-0.2,0-0.3,0h-4.9c0,0,0,0,0,0c0,0,0,0,0,0h-12.6c0,0,0-0.1,0-0.1
		h-3.1c0,0,0,0,0,0c0,0,0,0,0,0h-12.6c0,0,0-0.1,0-0.1"/>
	<path class="st3" d="M228.1,282v-13.1c-0.2-0.3-0.3-0.7-0.5-1c0.2,0.4,0.4,0.7,0.5,0.9v-6.7"/>
	<path class="st4" d="M228.1,215v-68.5"/>
	<path class="st5" d="M416.8,276"/>
	<path class="st5" d="M416.8,252.9"/>
	<path class="st5" d="M428.6,225.4"/>
	<path class="st6" d="M129.9,145.1c0.5-0.4,1.2-1,2.2-1.4l-1.3-0.9c0,0,0,0,0,0l-3.2-2.2c-0.2-0.2-0.3-0.5-0.1-0.8l2-2.9
		c-0.1,0-0.2,0.1-0.2,0.1c0,0,0,0,0,0c-0.1,0-0.6,0.2-1-0.3c-0.4-0.6,1.1-4,0.1-4.2c-0.4-0.1-1.1,2.4-1.8,3.4
		c-0.7,1-0.8,2.6-0.4,3.7c0.4,1.1-0.3,1.9-0.3,1.9c0,0,0,0.1,0,0.1C126.9,142,128.7,143.1,129.9,145.1z"/>
	<path class="st7" d="M127.6,140.5l3.2,2.2c-0.2-0.1-0.2-0.4-0.1-0.6l9.1-13c0.1-0.2,0.4-0.2,0.6-0.1l0.3,0.2c0,0,0,0,0,0l-3.5-2.5
		c-0.2-0.2-0.6-0.1-0.8,0.1l-6.9,9.8l-2,2.9C127.3,140,127.3,140.4,127.6,140.5z"/>
	<path class="st8" d="M139.8,129.3l-9.1,13c-0.1,0.2-0.1,0.4,0.1,0.6c0,0,0,0,0,0l1.3,0.9l0.7,0.5c0.2,0.1,0.4,0.1,0.6-0.1l9.1-13
		c0.1-0.2,0.1-0.4-0.1-0.6l-1.8-1.2l-0.3-0.2C140.2,129,139.9,129.1,139.8,129.3z"/>
	<path class="st8" d="M93.4,173.6c2.9,1.9,5.7,3,8.4,2.8c14.1-1.2,28.5-30.5,28.5-30.5c-0.1-0.3-0.2-0.5-0.4-0.7
		c-1.2-2.1-3-3.1-4-3.5c-0.4-0.2-0.6-0.2-0.6-0.2L101.7,159c-2.3-2.1-6.1-7.4-10-13.4c0.7,5.5,1.1,12.3,1.4,19.2
		C93.2,167.7,93.3,170.7,93.4,173.6z"/>
	<path class="st8" d="M37.2,333.2C37.2,333.2,37.2,333.2,37.2,333.2C37.2,333.2,37.2,333.2,37.2,333.2c0.2-0.8,0.2-2.1-2-2.6
		c-3.2-0.7-4.4-4.6-4.2-8.2c0.1-1.5,0-3.2,0-4.7c0,0,0,0,0,0c-1.5-0.6-6-2.6-7.8-4.4l0,0l-0.7,0.9c0,0-4.1,3.8-3.3,6.5
		c0.8,2.7,4.5,4.5,5,7.8c0.4,2.3,1.4,3.9,2.7,4.6c0,0,0,0,0,0c0,0,0.1,0,0.1,0.1H37.2z"/>
	<path class="st8" d="M93.3,330.8c-3.6-0.6-9.8-2.7-11.2-7.3c0,0,0,0,0,0c-1.5,1-4.6,2.3-9.3,1.6c0,0,0,0,0,0
		c-0.2,1.6-0.6,6.6,0.5,8.1c0,0,0,0,0,0c0,0,0,0,0,0.1h23.5c0,0,0,0,0-0.1c0,0,0,0,0,0C96.5,332.3,95.6,331.2,93.3,330.8z"/>
	<path class="st9" d="M71.8,324.9c0.4,0.1,0.7,0.1,1,0.2c4.7,0.7,7.8-0.6,9.3-1.6c0.7-0.5,1.1-0.8,1.1-0.8s1.6-16,2-26.1
		c0.2-5.8,2.6-36.3,4.5-61.1L63,277.8C65,302,71.8,324.9,71.8,324.9z"/>
	<path class="st10" d="M61.9,261.8c0.4,5.5,0.7,10.5,1,14.8c0,0.4,0.1,0.8,0.1,1.2l26.7-42.2c1.2-14.8,2.2-27.5,2.5-31.9
		c-1.2,0-3.2,0.2-5.5,0.5C85.4,207.3,73.6,236.7,61.9,261.8z"/>
	<path class="st9" d="M50.4,284.8c3.5-6.3,7.5-14.4,11.5-23c11.7-25.1,23.5-54.5,24.8-57.6c-4.3,0.4-9.8,1-14.9,0.5
		c-6.7-0.6-12.6-2.6-19-5.5c-0.4-0.2-1-0.5-1.6-0.9c-0.4,3.4-0.9,8.3-1.2,12.5c3,1.3,4.9,4.6,4.4,7.9l-1.9,13.7
		c-0.6,4.1-4.4,7-8.5,6.4l-0.5-0.1c-1.9,4.7-4,9-5.9,11.4c-9.7,12.2-15.2,62.1-15.2,62.1c0.1,0.3,0.3,0.6,0.7,1
		c1.8,1.7,6.3,3.7,7.8,4.4c0.3,0.1,0.5,0.2,0.5,0.2S36,310.7,50.4,284.8z"/>
	<path class="st6" d="M57.9,119C57.9,119,57.9,119,57.9,119C57.9,119,57.9,119,57.9,119C57.9,119,57.9,119,57.9,119z"/>
	<path class="st6" d="M68.8,118.7c2.9,1.4,5.8,1.7,8.5,1.2c-0.5-0.4-1.1-0.7-1.7-1.1c0.2-1.2,0.4-2.3,0.5-3.3
		c-5-0.9-10.6-8.9-10.7-8.9c-0.1-0.1-0.2-0.3-0.4-0.4c-0.8,4.3-2.5,7.4-4.1,9.6c0.1,0,0.1-0.1,0.2-0.1
		C61.7,115.2,65.4,117,68.8,118.7z"/>
	<path class="st11" d="M65.4,106.7c0,0,5.7,8.1,10.7,8.9c0.5-3.4,0.5-5.5,0.5-5.8C73.4,109.9,68.1,109.6,65.4,106.7z"/>
	<path class="st6" d="M76.5,109.8c1.6-0.1,2.6-0.3,2.6-0.3c3-0.7,3.1-10.8,2.4-16.1c-1.7,0-3.8-1-7.4-0.8c-4.8,0.2-4.9,3.4-5.5,4.2
		c-0.7,0.8-0.8-0.5-2.4-1c-1.6-0.5-1.6,2.1-1.4,4.1c0.2,2-1.2,2.2-1.2,2.2c-0.1,0-0.1-0.1-0.1-0.2c0.1,0.3,0.1,0.7,0.2,1
		c0.2,1.3,0.7,2.4,1.3,3.2c0.1,0.1,0.2,0.3,0.4,0.4C68.1,109.6,73.4,109.9,76.5,109.8z"/>
	<path class="st7" d="M60.8,116.8l9.4,23.4c0,0-2.7,3.2-6.3,7.5c0.7,11,0.3,34.5-13.5,44.6c-0.1,1.9-0.2,3.4-0.3,4.4
		c0,0.5,0.5,1.1,1.2,1.5c0.6,0.4,1.2,0.7,1.6,0.9c6.4,2.9,12.3,4.8,19,5.5c5,0.5,10.6,0,14.9-0.5c2.4-0.2,4.3-0.5,5.5-0.5
		c0.1,0,0.1,0,0.2,0c0.3,0,0.6-0.1,0.9-0.3c0.2-0.2,0.4-9.9,0.2-22.1c0-0.5,0-1,0-1.5v-0.2c0-2-0.1-4-0.1-6
		c-0.1-2.9-0.2-5.9-0.3-8.8c-0.3-6.9-0.7-13.7-1.4-19.2c-0.4-3.3-0.8-6.1-1.4-8.3c-1.7-6.9-5.7-11.5-9.3-14.8l-3-2.6
		c-0.2,0-0.5,0.1-0.7,0.1c-2.7,0.4-5.6,0.2-8.5-1.2c-3.4-1.7-7.1-3.5-7.7-3.1c-0.1,0-0.1,0.1-0.2,0.1c-1.1,0.8-2.1,1.9-3,3.2
		c0,0,0,0,0,0.1c-1.8,2.6-3.3,6.1-4.5,10.3C57.6,122.2,60.8,116.8,60.8,116.8z"/>
	<path class="st8" d="M50.3,192.3c13.9-10.1,14.2-33.6,13.5-44.6c-4.1,4.9-9.3,11.1-13,15.6C51.5,175.6,50.8,186.1,50.3,192.3z"/>
	<polygon class="st8" points="44.6,209.7 44.6,209.7 44.6,209.7 	"/>
	<path class="st8" d="M52.5,232.4l1.9-13.7c0.5-3.4-1.4-6.6-4.4-7.9c-0.6-0.3-1.3-0.5-2-0.6l-3.4-0.5c2.4,0.6,4.3,2.3,5.2,4.6v0
		c0.5,1.2,0.7,2.5,0.5,3.9l-2,13.8c-0.4,2.7-2.1,4.8-4.5,5.9c-0.8,0.3-1.6,0.6-2.5,0.6c0,0,0,0,0,0h0c0,0,0,0,0,0l2.1,0.3l0.5,0.1
		C48.1,239.4,51.9,236.5,52.5,232.4z"/>
	<path class="st7" d="M41.4,238.5C41.4,238.5,41.4,238.5,41.4,238.5c0.9-0.1,1.7-0.3,2.5-0.6c2.3-1,4.1-3.2,4.5-5.9l2-13.8
		c0.2-1.3,0-2.7-0.5-3.9v0c-0.9-2.2-2.8-4-5.2-4.6h0h0h0c0,0,0,0,0,0c0,0,0,0,0,0c-0.2-0.1-0.5-0.1-0.7-0.1l-6.3-0.9l0.4-3
		c0.1-0.7-0.1-1.3-0.5-1.9c-0.4-0.5-1-0.9-1.6-1l-1.1-0.2c-0.1,0.5-0.3,1-0.7,1.5l1.6,0.2c0.5,0.1,0.9,0.5,0.8,1.1l-0.4,3l-11.3-1.6
		l0.4-2.9c0.1-0.4,0.4-0.7,0.8-0.8c0.1,0,0.2,0,0.3,0l1.4,0.2l0.1,0c0.3-0.4,0.6-0.9,0.7-1.5l-0.8-0.1l-1.2-0.2
		c-1.4-0.2-2.6,0.8-2.8,2.1l-0.4,3l-10.8-1.5c-4.1-0.6-8,2.3-8.6,6.4l-2,13.8c-0.6,4.1,2.3,8,6.4,8.6l31.5,4.5
		C40.3,238.5,40.9,238.5,41.4,238.5C41.4,238.5,41.4,238.5,41.4,238.5L41.4,238.5z"/>
	<path class="st6" d="M26.8,205.6c0.1,2.3,3.1,1.2,3.1,1.2c2.2-1,3.4-1.8,4.1-2.6c0.4-0.5,0.6-1,0.7-1.5c0.1-0.4,0.1-0.9,0-1.5
		c-0.4-0.5-0.7-1.2-0.9-1.9c-0.5-1.5-0.1-3.2-0.1-3.2s0.4,0.5,0.9,1c0-0.2,0-0.3,0-0.5c0-0.3,0.2-0.7,0.4-1.1
		c-0.9,0-1.9-0.1-2.9-0.3c-0.8-0.2-1.5-0.4-2.1-0.7c-1.9,1.6-2,1.9-1.5,5.4c0.1,0.8,0,1.4-0.1,1.9c-0.2,0.6-0.5,1.1-0.7,1.5
		C27.3,204,26.8,204.6,26.8,205.6z"/>
	<path class="st7" d="M35.1,195.6c1.5,0.1,2.7,0,2.7,0s7.9-24.4,8.9-26.7c0.3-0.6,1.9-2.7,4.2-5.6c3.6-4.5,8.9-10.7,13-15.6
		c3.6-4.3,6.3-7.5,6.3-7.5l-9.4-23.4c0,0-3.2,5.3-7.4,12.4c-7.4,12.4-17.8,30.3-19.4,33.9c-4.1,9.4-5.5,30.6-5.5,30.6
		s0.6,0.4,1.5,0.9c0.6,0.3,1.3,0.5,2.1,0.7C33.2,195.5,34.2,195.6,35.1,195.6z"/>
	<path class="st7" d="M64.9,99.9c-0.2-2-0.2-4.6,1.4-4.1c1.6,0.5,1.7,1.8,2.4,1c0.7-0.8,0.7-4,5.5-4.2c3.7-0.2,5.7,0.8,7.4,0.8
		c0.6,0,1.1-0.1,1.7-0.3c2.3-1,2.4-4.4,2.4-4.4S85,89.9,84,90.3c0,0,3.8-5.1-0.6-8.7c-4.4-3.5-8.8-1.2-11.3-1.1
		c-5.6,0.3-9.1,0.7-11,4.3c-1.8,3.6-1.1,13.5,2.3,17.1c0,0.1,0.1,0.1,0.1,0.2C63.6,102.2,65.1,101.9,64.9,99.9z"/>
	<path class="st6" d="M36.2,202c0.4-0.2-0.4-1.2-0.7-3.4c0-0.3-0.4-0.9-0.8-1.4c-0.4-0.5-0.9-1-0.9-1s-0.4,1.7,0.1,3.2
		c0.2,0.7,0.6,1.4,0.9,1.9C35.3,201.9,35.8,202.3,36.2,202z"/>
	<path class="st6" d="M481.2,153.9C481.2,153.9,481.2,153.9,481.2,153.9c0-0.1,1.6-3.5,1.6-4.6l-1.8,0.5
		C481.2,151.1,481.2,152.6,481.2,153.9z"/>
	<path class="st8" d="M521.2,94.9c11.2-1.6,12.8,9.6,12.2,12.6c-0.1,0.5-0.2,1.1-0.4,1.6c0.9,1,1.6,1.6,1.6,1.6s-0.8,0.5-2.4,0.6
		c-1.2,2.9-2.7,5.3-2.7,5.3h0c-0.1,0.4-0.3,0.7-0.5,1c0,0.7,0,1.3,0,1.9l0,0c0,0,1.4-3.3,3.4-2.3c3,1.6,8.7-4.9,6.9-13.6
		c-0.2-0.9-0.4-1.8-0.7-2.6c-1-0.4-1.8-1-1.8-1l-5.7-8.5c0,0,0,0,0,0c-6-5.4-15.1,3.9-17.4,6.4c0.4-0.3,0.7-0.6,1-0.8
		C517.9,95.2,521.2,94.9,521.2,94.9z"/>
	<path class="st6" d="M504.3,160.7c-3.8-1.1-6.5-4.5-6.9-5.1c-0.2,0.9-0.4,1.9-0.6,2.9c-0.5,2.7-0.9,5.6-1.1,8.9
		c0,0-11.8-7.4-14.5-11.2l-3.2,2.2c0,0,9.7,17.2,19.7,20.8c2,0.7,3.7-0.7,5.2-3.4c0.8-5.5,1.5-10.8,1.7-15.1
		C504.5,160.8,504.4,160.8,504.3,160.7z"/>
	<path class="st8" d="M536.9,100.1c0,0,0.8,0.6,1.8,1c0.6,0.3,1.3,0.5,2,0.5c1.7,0,4.3-4.4,4.7-5.9c0.4-1.5,0-6.4-2.4-7.8
		c-2.4-1.4-6.1,0.3-6.1,0.3c1.3-1.8,6.1-1.2,6.1-1.2c-9.5-2-11.5,4.1-11.6,4.6c0,0,0,0,0,0L536.9,100.1z"/>
	<path class="st6" d="M516.9,131.9c-0.4,0.7-5.6,8.6-5.2,10.6c0.4,2.1,18.9,0.2,20.1-1c0.5-0.5,1.2-2.3,1.7-4.2l-1.5-6.3
		c0,0,0.1,0,0.3,0c-1.3-1-3-5.2-3.3-11.5c0-0.6,0-1.3,0-1.9c-0.4,0.7-0.9,1.2-1.4,1.8c-1.6,3-4.6,6.9-9.6,7c0-1.3,0-2.5-0.1-3.6l0,0
		c0,1.1,0.1,2.4,0.1,3.6c0,2.6-0.2,5.1-0.7,5.4c-0.2,0-0.4,0-0.5,0C516.8,131.9,516.9,131.9,516.9,131.9z"/>
	<path class="st12" d="M518,126.4c5-0.1,8-4,9.6-7c-2.7,2.4-7.1,3.2-9.7,3.4C518,123.9,518,125.2,518,126.4z"/>
	<path class="st8" d="M516.4,98.7c0.3-0.5,0.7-0.8,1.1-1.1c0.2-0.3,0.4-0.5,0.6-0.3c4-1.4,11,3.4,11,3.4c0.6,3.9,2.5,6.7,3.9,8.3
		c0.2-0.6,0.3-1.1,0.4-1.6c0.5-3-1-14.2-12.2-12.6c0,0-3.3,0.3-6.3,2.4c-0.3,0.2-0.7,0.5-1,0.8c-0.2,0.1-0.3,0.3-0.5,0.4
		C514.7,97.7,515.8,98.2,516.4,98.7z"/>
	<path class="st8" d="M532.2,111.3c-0.6,0.1-1.4,0.1-2.3,0.1c0,0.9-0.1,1.9-0.1,2.9c0,0.8-0.1,1.6-0.4,2.3h0
		C529.5,116.6,531.1,114.2,532.2,111.3z"/>
	<path class="st6" d="M527.7,119.4c0.6-0.5,1-1.1,1.4-1.8c0.2-0.3,0.3-0.7,0.5-1c0.2-0.7,0.4-1.4,0.4-2.3c0-1,0-2,0.1-2.9
		c-1.1-0.1-2.4-0.2-3.9-0.6c-1.8-0.5-3.4-1.8-4.8-3.3c2.4,4,5.7,6.9,5.7,6.9c-7.1-3.3-9.9-13.1-10.2-14.2c-0.9,0.8-2.6,2.5-3.1,4.1
		c-0.7,2.2-1,6.9-2.4,6.7v0c0.5,5.2,2.1,11.7,4.5,11.9c0,0,0.9,0,2.2-0.1l0,0C520.6,122.6,525,121.8,527.7,119.4z M515.7,118.5
		c0,0-2.2-0.1-2.1-1.3c0,0,2.1-0.8,4.9,0.4C518.5,117.7,518.3,118.7,515.7,118.5z"/>
	<path class="st8" d="M516.4,98.7c0.2,0.2,0.4,0.4,0.5,0.5c0.2-0.5,0.4-1.2,0.6-1.6C517.1,97.9,516.7,98.3,516.4,98.7z"/>
	<path class="st8" d="M532.2,111.3c1.6-0.2,2.4-0.6,2.4-0.6s-0.7-0.5-1.6-1.6c-1.4-1.6-3.3-4.5-3.9-8.3c0,0-7-4.8-11-3.4
		c0.3,0.3,0.5,1.2,0.7,3.2c0.2,2.4,1.2,4.8,2.5,6.8c1.4,1.6,3,2.9,4.8,3.3c1.5,0.4,2.8,0.6,3.9,0.6
		C530.9,111.4,531.6,111.4,532.2,111.3z"/>
	<path class="st8" d="M513.7,104.3c0.5-1.6,2.2-3.3,3.1-4.1c0-0.1,0-0.1,0-0.1s0.1-0.4,0.2-0.8c-0.1-0.2-0.3-0.4-0.5-0.5
		c-0.7-0.6-1.7-1-3.1-0.2c-0.5,0.3-1.1,0.8-1.7,1.5c-3.3,4-0.4,11-0.4,11v0C512.7,111.1,513,106.5,513.7,104.3z"/>
	<path class="st7" d="M527.4,323.2C527.4,323.2,527.4,323.2,527.4,323.2c1.8-4.5,4.3-11.2,6.2-18.8c0.2-0.9,0.4-1.8,0.6-2.7
		c-1.4-11.6-3.2-23-5.1-26.8c-6-11.2-9.1-43.7-10.5-63.1c-4.9,0-10.1-0.6-13.6-2.7c0.3,11.4,2.3,33.4,11.8,60.4
		c4.1,11.6,5.3,23.7,5.4,34c0.1,7.7-0.5,14.4-1.1,19c0.2,0,0.8,0.3,3,2.2C525.3,325.7,527.4,323.2,527.4,323.2z"/>
	<path class="st6" d="M542.5,171.8c1.1,4.2,2.1,7.9,2.5,9.8c1.3,6,15.3,29.2,15.3,29.2l4.2-1.3c-3.3-8.1-7.2-24.4-8.5-27.3
		c-0.4-1-1.3-5.6-2.3-11.7C548.5,173,544,172.2,542.5,171.8z"/>
	<path class="st6" d="M542.9,133.4C542.9,133.4,542.9,133.4,542.9,133.4c0.6,0.3,1.3,0.6,1.9,1.1
		C544.3,134.1,543.7,133.7,542.9,133.4z"/>
	<path class="st6" d="M545.5,135.1c-0.2-0.2-0.4-0.4-0.6-0.6c0,0,0,0,0,0C545.1,134.7,545.3,134.9,545.5,135.1z"/>
	<path class="st6" d="M533.6,137.4c0.8-2.8,1.5-5.8,1.5-5.9c-1.2-0.2-2.2-0.3-2.7-0.4c-0.2,0-0.3,0-0.3,0L533.6,137.4z"/>
	<path class="st7" d="M542.1,210c-2.9-0.3-4.1-5.1-4.7-9.2c-1.7,5.9-4.1,9.2-7.3,9.9c-1.8,0.4-6.4,1.1-11.5,1.1
		c1.4,19.4,4.5,51.9,10.5,63.1c2,3.7,3.8,15.2,5.1,26.8c0.1,1.2,0.3,2.5,0.4,3.7c0.7,6.6,1.6,12.6,2.3,17.1c0.2,0,0.8,0.4,3,2.2
		c1.1,0.9,2.9-1,3.2-1.4c0.9-4.5,2.6-13.7,4-25c3.4-26.7-3.3-35.5-3.3-35.5c0.7-4,5.2-26.1,4.5-47.3c-0.1-2.1-0.2-4.1-0.4-6
		C546.9,210.1,545.1,210.3,542.1,210z"/>
	<path class="st8" d="M518.2,97.4c-0.2-0.2-0.4,0-0.6,0.3c-0.2,0.4-0.5,1.1-0.6,1.6c-0.1,0.5-0.2,0.8-0.2,0.8s0,0,0,0.1
		c0.3,1,3.1,10.9,10.2,14.2c0,0-3.3-2.9-5.7-6.9c-1.2-2.1-2.2-4.4-2.5-6.8C518.7,98.6,518.4,97.6,518.2,97.4z"/>
	<path class="st9" d="M530.1,210.7c3.1-0.7,5.5-4,7.3-9.9c0.6,4.1,1.8,8.9,4.7,9.2c3,0.3,4.9,0.1,6-0.6c0.6-0.4,1-0.9,1.2-1.5
		c0.2-0.5,0.2-1.2,0.2-2.1c-3.2-1.1-7.2-3.9-12.1-10.1c-12.9-16.6-1.1-36.2,0.5-36.5s4.5,12.6,4.5,12.6c0,0,0.1,0,0.1,0
		c1.5,0.4,6,1.2,11.2-1.2c0.4-0.2,0.8-0.4,1.2-0.6c-2.4-11.7-5.8-28-9.2-34.5c-0.1-0.1-0.1-0.2-0.2-0.3c-0.2-0.2-0.4-0.4-0.6-0.6
		c0,0,0,0,0,0c0,0,0,0,0,0c0,0,0,0,0,0c-0.6-0.4-1.3-0.8-2-1.1c-3.3-1.5-7.7-1.9-7.7-1.9s0,0,0,0c0,0.1-0.7,3.1-1.5,5.9
		c-0.6,1.9-1.2,3.7-1.7,4.2c-1.3,1.2-19.7,3.1-20.1,1c-0.4-2,4.8-9.9,5.2-10.6c0,0-0.1,0-0.1,0c-0.2,0-0.7,0.1-0.7,0.1
		c-2.1,0.3-3.6,0.5-4.7,0.7c-2.1,0.4-2.6,0.6-3.1,1c-0.1,0.1-0.2,0.2-0.4,0.4c0.7-0.5,1.1-0.8,1.1-0.8s2,28-3,27.7
		c-0.5,0-1-0.1-1.5-0.2c-0.3,4.3-1,9.5-1.7,15.1c-1.3,9.8-2.7,20.4-1.7,27.7c0.3,2.5,1.8,4.3,3.9,5.5c3.5,2.1,8.8,2.7,13.6,2.7
		C523.7,211.7,528.3,211.1,530.1,210.7z"/>
	<path class="st6" d="M475.5,145.5C475.5,145.5,475.5,145.5,475.5,145.5c0,0.3,0,0.5,0,0.5L475.5,145.5L475.5,145.5z"/>
	<path class="st6" d="M481.2,153.9c0-1.3,0-2.8-0.2-4l-2.7,0.8c0,0,0,0,0,0l-0.2,0.1c-0.4,0.6-0.8,1-0.8,1l-1.7-3.9V146l-2,3.4
		c0,0,0,0,0-0.1c-0.2,0.8-0.2,1.6,0,2.4c0.8,2.9,4.4,6.8,4.4,6.8l3.2-2.2C481.1,156,481.2,155.1,481.2,153.9z"/>
	<path class="st7" d="M480.2,134.3l4.1,13.8c0.1,0.4-0.1,0.9-0.5,1l-5.5,1.6c0,0,0,0,0,0l2.7-0.8l1.8-0.5l1.9-0.6
		c0.2-0.1,0.4-0.3,0.3-0.5l-4.3-14.4c-0.1-0.2-0.3-0.4-0.5-0.3l-1.5,0.4l0.5-0.1C479.6,133.6,480,133.8,480.2,134.3z"/>
	<path class="st8" d="M474.6,139.8c0.2,0.7,0.7,4,0.9,5.5l0.1,0.2l0,0.1v-0.1c0,0,2.7-4.2,3.4-4c0.9,0.3-2.3,5.3-2.5,5.6
		c0.2-0.3,2.5-3.9,2.9-3.7c0.9,0.7-0.5,3.2-2,5.1c0,0,2.5-2.3,2.6-1.9c0.2,1-1.1,2.9-2,4l0.2-0.1l5.5-1.6c0.4-0.1,0.6-0.6,0.5-1
		l-4.1-13.8c-0.1-0.4-0.6-0.6-1-0.5l-0.5,0.1l-5.3,1.6c-0.4,0.1-0.6,0.6-0.5,1l1.5,4.8C474.4,140.2,474.5,139.5,474.6,139.8z"/>
	<path class="st8" d="M507.6,332.8c0.2,0.3,10.3,0.1,10.9-0.3c0.5-0.4,2-1,4-0.7c0.1-0.3,0.2-0.5,0.2-0.7c0.2-0.5,0.6-0.9,1.2-1.1
		c1-0.3,2.8-0.6,4.6-1.6c-0.2-0.9-0.3-1.7-0.2-2.2c0.1-0.8,0-1.5-0.3-1.9c-0.7,0.5-2.2,1.5-3.2,1.6c-1.3,0.2-3.9-3.2-3.9-3.2
		s-5.2,3.3-6.6,4.5c-2.4,2.2-5.1,2.5-6.4,2.9c-0.5,0.2-1,0.6-1.2,1.1C507.3,330.6,507.4,332.5,507.6,332.8z"/>
	<path class="st13" d="M524.9,325.7c1-0.1,2.5-1.1,3.2-1.6c-0.3-0.6-0.6-0.9-0.7-0.9c0,0,0,0,0,0s-2.1,2.5-3.3,1.5
		c-2.2-1.9-2.8-2.1-3-2.2c0,0,0,0,0,0l0,0C521,322.5,523.5,325.9,524.9,325.7z"/>
	<path class="st13" d="M521.7,332.7c0.2,0,0.5,0.1,0.7,0.1c0-0.3,0.1-0.7,0.2-1.1c-2-0.3-3.5,0.3-4,0.7c-0.6,0.4-10.7,0.6-10.9,0.3
		s-0.3-2.1-0.7-1.8c-0.3,0.7-0.6,1.7-0.3,2.2c0,0,0,0,0,0c0,0,0,0.1,0,0.1h12.6c0,0,0,0,0,0c0,0,0,0,0,0c0,0,0,0,0,0
		C519.6,333,520.3,332.5,521.7,332.7z"/>
	<path class="st8" d="M540.7,325.7c-1.3,0.2-3.9-3.2-3.9-3.2s-5.2,3.3-6.6,4.5c-0.6,0.5-1.2,0.9-1.8,1.3c-1.8,1.1-3.6,1.3-4.6,1.6
		c-0.5,0.2-1,0.6-1.2,1.1c0.4-0.3,0.5,1.5,0.7,1.8c0.2,0.3,10.3,0.1,10.9-0.3c0.6-0.4,2.3-1.2,4.8-0.6c2.1,0.5,5.2-0.8,6-1.1
		c-0.5-1.4-1.1-3.5-0.9-4.7c0.1-0.8,0-1.5-0.3-1.9C543.2,324.6,541.7,325.6,540.7,325.7z"/>
	<path class="st13" d="M540,324.6c-2.1-1.8-2.8-2.1-3-2.2c0,0,0,0-0.1,0l0,0c0,0,2.5,3.4,3.9,3.2c1-0.1,2.5-1.1,3.2-1.6
		c-0.3-0.6-0.7-0.9-0.7-0.9s0,0-0.1,0.1C542.8,323.6,541.1,325.5,540,324.6z"/>
	<path class="st13" d="M545.7,332.2c0,0-0.2-0.6-0.5-1.5c-0.8,0.3-3.9,1.6-6,1.1c-2.4-0.6-4.2,0.2-4.8,0.6
		c-0.6,0.4-10.7,0.6-10.9,0.3c-0.2-0.3-0.3-2.1-0.7-1.8c-0.1,0.2-0.2,0.5-0.2,0.7c-0.1,0.4-0.2,0.7-0.2,1.1c0,0.2,0,0.3,0.1,0.4
		c0,0,0,0,0,0c0,0,0,0.1,0,0.1h12.6c0,0,0,0,0,0c0,0,0,0,0,0c0,0,0,0,0,0c0.2-0.2,0.9-0.7,2.3-0.5c0.9,0.1,1.6,0.4,2.4,0.5
		c0,0,0.1,0,0.1,0c0.1,0,0.2,0,0.3,0h3c0.1,0,0.2,0,0.3,0c0,0,0.1,0,0.1,0C545.8,332.8,545.7,332.2,545.7,332.2z"/>
	<path class="st10" d="M537.9,159.1c-1.6,0.4-13.3,19.9-0.5,36.5c4.9,6.3,8.9,9.1,12.1,10.1c-0.3-6.1-5-20.6-7-34
		C542.4,171.8,539.4,158.8,537.9,159.1z"/>
	<path class="st9" d="M504.3,160.7c0.1,0,0.2,0.1,0.3,0.1c0.5,0.1,1,0.2,1.5,0.2c5,0.3,3-27.7,3-27.7s-0.4,0.2-1.1,0.8
		c-2.5,1.9-8.3,7.7-10.6,21.6c0,0,0,0,0.1,0.1C497.8,156.2,500.5,159.7,504.3,160.7z"/>
	<path class="st6" d="M480.1,146.7c-0.1-0.4-2.6,1.9-2.6,1.9c1.4-1.9,2.9-4.4,2-5.1c-0.4-0.3-2.8,3.4-2.9,3.7
		c0.2-0.3,3.4-5.3,2.5-5.6c-0.7-0.2-3.4,4-3.4,4v0.1v0.4v1.8l1.7,3.9c0,0,0.3-0.4,0.8-1C479,149.6,480.3,147.6,480.1,146.7z"/>
	<path class="st6" d="M475.6,146c0,0,0-0.2-0.1-0.5c0-0.1,0-0.2,0-0.2c-0.2-1.5-0.6-4.8-0.9-5.5c-0.1-0.3-0.2,0.4-0.3,1.5
		c-0.3,2.5-0.6,7.4-0.7,8c0,0,0,0,0,0.1L475.6,146z"/>
	<path class="st0" d="M518.5,117.7c-2.8-1.2-4.9-0.4-4.9-0.4c-0.1,1.1,2.1,1.3,2.1,1.3C518.3,118.7,518.5,117.7,518.5,117.7z"/>
	<path class="st6" d="M560.8,212L560.8,212l4.3,2.9c0,0,0.2,0.8,0.4,1.8c1.8,0.5,4,0.9,4.8,2.4c1.3,2.3,2.6,2.1,2.6,2.1
		s-0.1-0.4-0.3-1c-0.2,0-0.3-0.1-0.4-0.3c-0.5-0.7-2.5-5-2.5-5c0.1,0.1,0.8,0.9,1.7,1.9c-0.4-1-0.7-1.9-1-2.3
		c-0.8-1.4-5.9-4.8-5.9-4.8l-4.2,1.3C560.2,210.9,560.5,211.3,560.8,212z"/>
	<path class="st6" d="M560.8,212L560.8,212c0,0,0.9,4,1.9,5.2c1,1.2,2.5,3.1,3.1,2.6c0.3-0.3,0.1-1.9-0.2-3.1
		c-0.2-1-0.4-1.8-0.4-1.8L560.8,212z"/>
	<path class="st6" d="M572.2,219.8c0.1,0.2,0.3,0.2,0.4,0.3c0.7,0.2,1.7-0.3,1.7-0.3s-1.6-1.7-2.9-3.1c-0.9-1-1.7-1.8-1.7-1.9
		C569.7,214.9,571.7,219.1,572.2,219.8z"/>
	<path class="st14" d="M565.5,67.8c0.4,8.8,2.8,16.5,8.7,21.9l-6.6,16.5L581,94.3c5.4,2.5,12.4,4,21.5,4c2.6,0,5-0.1,7.3-0.3
		c21.2-1.9,28.7-12.1,27.8-27.9c-1.4-23.5-15.9-30.1-31.1-31.4c-2.4-0.2-4.8-0.3-7.1-0.3C581.8,38.3,564.7,47.4,565.5,67.8z
		 M579.2,68.3h24.2v1.9h-24.2V68.3z M579.2,75.5v-1.9H611v1.9H579.2z M623.9,70.2h-18.5v-1.9h18.5V70.2z M611,63v1.9h-31.8V63H611z"
		/>
	<rect x="579.2" y="63" class="st0" width="31.8" height="1.9"/>
	<rect x="579.2" y="73.6" class="st0" width="31.8" height="1.9"/>
	<rect x="579.2" y="68.3" class="st0" width="24.2" height="1.9"/>
	<rect x="605.4" y="68.3" class="st0" width="18.5" height="1.9"/>
	<path class="st9" d="M108.8,90l-5.8,14.6l11.9-10.5c4.8,2.3,11,3.5,19,3.5c23.7,0,32-9.5,31-25c-1.5-24-18.3-28.1-33.8-28.1
		c-15.5,0-30.6,8-29.9,26.1C101.5,78.5,103.6,85.2,108.8,90z M152.8,72.7h-16.4v-1.7h16.4V72.7z M113.3,66.4h28.1v1.7h-28.1V66.4z
		 M113.3,71.1h21.5v1.7h-21.5V71.1z M113.3,75.7h28.1v1.7h-28.1V75.7z"/>
	<rect x="113.3" y="66.4" class="st0" width="28.1" height="1.7"/>
	<rect x="113.3" y="75.7" class="st0" width="28.1" height="1.7"/>
	<rect x="113.3" y="71.1" class="st0" width="21.5" height="1.7"/>
	<rect x="136.4" y="71.1" class="st0" width="16.4" height="1.7"/>
	<path class="st9" d="M232.4,313.9c0,8.2,6.7,14.9,14.9,14.9h150.2c8.2,0,14.9-6.7,14.9-14.9V28.1c0,0.4,0,0.8,0,1.2V47H232.4V29.2
		c0-2.2,0.1-4.3,0.4-6.2c-0.3,1.1-0.4,2.3-0.4,3.6V313.9z M266.3,293v-23.8h3.8V293H266.3z M277.1,293v-30.7h3.8V293H277.1z
		 M291.8,293H288v-24.3h3.8V293z M302.6,293h-3.8v-35.4h3.8V293z M313.5,293h-3.8v-42.6h3.8V293z M324.3,293h-3.8v-36h3.8V293z
		 M335.2,293h-3.8v-25.5h3.8V293z M346,293h-3.8v-17.7h3.8V293z M356.9,293h-3.8v-22.6h3.8V293z M367.7,293h-3.8v-30.7h3.8V293z
		 M378.6,293h-3.8v-25.5h3.8V293z M322.4,80.4c39.2,0,70.9,31.7,70.9,70.9s-31.7,70.9-70.9,70.9c-39.2,0-70.9-31.7-70.9-70.9
		S283.3,80.4,322.4,80.4z"/>
	<path class="st9" d="M412.5,26.5c0-1.1-0.1-2.1-0.3-3.1c0.2,1.3,0.3,2.8,0.3,4.5V26.5z"/>
	<path class="st9" d="M400.3,11.8c-0.9-0.2-1.8-0.2-2.7-0.2h-16.9l14.2,0.1C396.7,11.6,398.6,11.6,400.3,11.8z"/>
	<path class="st0" d="M232.4,47h180.1V29.3c0-0.4,0-0.8,0-1.2v-0.3c0-1.6-0.1-3.1-0.3-4.5c-1.3-5.9-6-10.5-11.9-11.6
		c-1.7-0.2-3.5-0.3-5.4-0.1l-14.2-0.1H247.3c-7,0-12.9,4.9-14.5,11.4c-0.3,1.9-0.4,4-0.4,6.2V47z M387.8,40.1l-3.5-2.4
		c0.8-1.1,2-1.8,3.5-1.8c1.4,0,2.7,0.7,3.4,1.8L387.8,40.1z M393.9,35.7c-1.4-1.9-3.6-3.2-6.2-3.2c-2.6,0-4.8,1.3-6.2,3.2l-2.2-1.5
		c1.9-2.6,4.9-4.4,8.4-4.4c3.4,0,6.5,1.7,8.3,4.3L393.9,35.7z M398.2,32.7c-2.3-3.2-6.1-5.3-10.4-5.3c-4.3,0-8.1,2.1-10.5,5.4
		l-2.2-1.5c2.8-4,7.4-6.5,12.6-6.5c5.2,0,9.8,2.5,12.6,6.4L398.2,32.7z M387.8,18.4c7.3,0,13.7,3.6,17.6,9.1l-2.2,1.6
		c-3.5-4.8-9.1-8-15.5-8c-6.4,0-12.1,3.2-15.5,8.1l-2.2-1.5C374,22.1,380.4,18.4,387.8,18.4z"/>
	<path class="st15" d="M322.4,222.2c39.2,0,70.9-31.7,70.9-70.9s-31.7-70.9-70.9-70.9c-39.2,0-70.9,31.7-70.9,70.9
		S283.3,222.2,322.4,222.2z M305.6,141.9h9.5v-3.2h-9.5v-4.1h9.5v-3.2h-9.5v-4.3h9.5V124h-9.5v-12.7c0-8.9,7.3-16.1,16.1-16.1h1.4
		c8.9,0,16.1,7.3,16.1,16.1V124h-8.9v3.2h8.9v4.3h-8.9v3.2h8.9v4.1h-8.9v3.2h8.9V153c0,8.9-7.3,16.1-16.1,16.1h-1.4
		c-8.9,0-16.1-7.3-16.1-16.1V141.9z M293.4,122.3c0-1.4,1.1-2.6,2.6-2.6s2.6,1.1,2.6,2.6V152c0,13.2,10.7,23.9,23.9,23.9
		c13.2,0,23.9-10.7,23.9-23.9v-29.7c0-1.4,1.1-2.6,2.6-2.6c1.4,0,2.6,1.1,2.6,2.6V152c0,15.2-11.7,27.6-26.5,28.9v25.4
		c0,1.4-1.1,2.6-2.6,2.6c-1.4,0-2.6-1.1-2.6-2.6V181c-14.8-1.3-26.5-13.8-26.5-28.9V122.3z"/>
	<path class="st0" d="M321.7,169.1h1.4c8.9,0,16.1-7.3,16.1-16.1v-11.1h-8.9v-3.2h8.9v-4.1h-8.9v-3.2h8.9v-4.3h-8.9V124h8.9v-12.7
		c0-8.9-7.3-16.1-16.1-16.1h-1.4c-8.9,0-16.1,7.3-16.1,16.1V124h9.5v3.2h-9.5v4.3h9.5v3.2h-9.5v4.1h9.5v3.2h-9.5V153
		C305.6,161.9,312.9,169.1,321.7,169.1z"/>
	<path class="st0" d="M325,178.5v2.4c14.8-1.3,26.5-13.8,26.5-28.9v-29.7c0-1.4-1.1-2.6-2.6-2.6c-1.4,0-2.6,1.1-2.6,2.6V152
		c0,13.2-10.7,23.9-23.9,23.9C323.8,176,325,177.1,325,178.5z"/>
	<path class="st0" d="M319.9,181v-2.4c0-1.4,1.1-2.6,2.6-2.6c-13.2,0-23.9-10.7-23.9-23.9v-29.7c0-1.4-1.1-2.6-2.6-2.6
		s-2.6,1.1-2.6,2.6V152C293.4,167.2,305,179.7,319.9,181z"/>
	<path class="st0" d="M319.9,178.5v2.4v25.4c0,1.4,1.1,2.6,2.6,2.6c1.4,0,2.6-1.1,2.6-2.6V181v-2.4c0-1.4-1.1-2.6-2.6-2.6
		C321,176,319.9,177.1,319.9,178.5z"/>
	<rect x="266.3" y="269.2" class="st0" width="3.8" height="23.8"/>
	<rect x="277.1" y="262.3" class="st0" width="3.8" height="30.7"/>
	<rect x="288" y="268.6" class="st0" width="3.8" height="24.3"/>
	<rect x="298.8" y="257.6" class="st0" width="3.8" height="35.4"/>
	<rect x="309.7" y="250.4" class="st0" width="3.8" height="42.6"/>
	<rect x="320.5" y="257" class="st0" width="3.8" height="36"/>
	<rect x="331.4" y="267.5" class="st0" width="3.8" height="25.5"/>
	<rect x="342.2" y="275.3" class="st0" width="3.8" height="17.7"/>
	<rect x="353.1" y="270.4" class="st0" width="3.8" height="22.6"/>
	<rect x="363.9" y="262.3" class="st0" width="3.8" height="30.7"/>
	<rect x="374.8" y="267.5" class="st0" width="3.8" height="25.5"/>
	<path class="st15" d="M387.8,35.9c-1.4,0-2.7,0.7-3.5,1.8l3.5,2.4l3.4-2.5C390.4,36.6,389.2,35.9,387.8,35.9z"/>
	<path class="st15" d="M387.8,29.9c-3.5,0-6.5,1.7-8.4,4.4l2.2,1.5c1.4-1.9,3.6-3.2,6.2-3.2c2.5,0,4.8,1.2,6.2,3.2l2.2-1.6
		C394.2,31.5,391.2,29.9,387.8,29.9z"/>
	<path class="st15" d="M387.8,21.1c6.4,0,12,3.1,15.5,8l2.2-1.6c-3.9-5.5-10.4-9.1-17.6-9.1c-7.3,0-13.8,3.6-17.7,9.2l2.2,1.5
		C375.7,24.3,381.4,21.1,387.8,21.1z"/>
	<path class="st15" d="M387.8,24.7c-5.2,0-9.8,2.6-12.6,6.5l2.2,1.5c2.3-3.3,6.1-5.4,10.5-5.4c4.3,0,8.1,2.1,10.4,5.3l2.2-1.6
		C397.5,27.2,392.9,24.7,387.8,24.7z"/>
	<path class="st7" d="M416.8,252.9v-9.6v-34.9v-90V59.3V26.5c0-3.3-0.8-6.4-2.3-9.1c-3.3-6-9.6-10.1-16.9-10.1h-11.3H272.7h-25.3
		c-10.6,0-19.2,8.6-19.2,19.2v4.1v115.9V215v47.1v6.7v0.1V282v32c0,10.6,8.6,19.2,19.2,19.2h150.2c10.6,0,19.2-8.6,19.2-19.2v-38
		 M247.3,11.6h133.3h16.9c0.9,0,1.8,0.1,2.7,0.2c5.9,1.1,10.7,5.7,11.9,11.6c0.2,1,0.3,2.1,0.3,3.1v1.3v0.3v285.8
		c0,8.2-6.7,14.9-14.9,14.9H247.3c-8.2,0-14.9-6.7-14.9-14.9V26.5c0-1.2,0.2-2.4,0.4-3.6C234.4,16.4,240.3,11.6,247.3,11.6z"/>
</g>
</svg>
